<?xml version="1.0" encoding="UTF-8"?>
<svg id="Layer_1" data-name="Layer 1" xmlns="http://www.w3.org/2000/svg" viewBox="0 0 680.33 682">
  <defs>
    <style>
      .cls-1 {
        fill: #fff;
        stroke-width: 0px;
      }
    </style>
  </defs>
  <path class="cls-1" d="M235.57,682c-1.16-.11-2.32-.23-3.48-.35-3.07-.32-6.25-.65-9.58-.74-29.17-.75-55.44-1.88-81.48-8.27-27.68-6.79-51.7-18.13-71.37-33.7-20.1-15.9-36.33-36.75-48.26-61.97-13.3-28.13-19.7-60.47-20.15-101.77l-.03-2.51C.43,398.79-.39,322.38.21,247.28c.28-34.62,2.48-65.4,6.75-94.08,7-47.03,29.62-85.18,67.25-113.37C103.57,17.82,138.88,6.05,185.32,2.77c11.45-.81,23.17-1.4,34.49-1.96,5.2-.26,10.39-.52,15.58-.8h209.23c4.97.28,9.94.55,14.92.82,11.12.61,22.61,1.23,33.9,1.9,31.72,1.87,56.98,7.46,79.51,17.6,29.79,13.4,53.59,32.41,70.74,56.5,16.47,23.13,27.43,51.79,32.58,85.19,1.24,8.03,2.08,16.39,2.9,24.48.37,3.7.75,7.41,1.16,11.11v281.1c-.08.48-.16.96-.24,1.45-.3,1.79-.62,3.64-.83,5.62-.49,4.6-.9,9.24-1.3,13.74-.83,9.4-1.62,18.27-3.11,27.09-7.5,44.33-26.1,79.14-56.87,106.44-31.59,28.02-70.55,42.71-122.6,46.23-11.31.77-22.86,1.36-34.02,1.94-5.12.26-10.23.53-15.35.81h-210.43ZM340.83,44.04c-25.29,0-51.07.09-73.81.16-2.82,0-5.64.02-8.46.02-32.25.07-65.59.14-98.47,5.91-57.61,10.12-97.23,47.99-108.69,103.91-4.18,20.4-6.33,42.56-6.95,71.84-1.28,60.22-1.62,115.7-1.02,169.62.36,32.97,1.29,76.32,5.31,119.16,3.78,40.33,22.93,73.45,55.39,95.78,23.15,15.93,50.94,24.3,84.94,25.59,35.63,1.35,71.84,2.14,106.86,2.91,14.89.33,29.79.65,44.68,1.02l10,.25.03-1.28c2.51.02,5.01.04,7.47.06,5.7.05,11.59.11,17.41.11,8.14,0,14.89-.11,21.24-.33,10.15-.36,20.51-.61,30.54-.86,29.3-.71,59.59-1.45,89.28-5.07,56.14-6.85,94.67-39.24,111.41-93.66,7.14-23.21,8.82-46.64,9.15-74.68l.22-18.97c.65-54.94,1.33-111.75.83-167.67-.32-35.81-1.21-74.15-5.54-111.82-6.98-60.69-45.52-102.36-105.75-114.34-27.17-5.4-54.87-6.51-75.97-6.86-32.3-.54-67.28-.8-110.08-.8Z"/>
  <path class="cls-1" d="M340.31,511.41c-93.42,0-169.7-76.34-170.05-170.18-.17-45.21,17.42-87.87,49.54-120.12,32.29-32.42,75.18-50.28,120.79-50.3,45.48,0,88.12,17.58,120.13,49.49,32.02,31.93,49.84,74.64,50.16,120.27.32,45.12-17.1,87.76-49.06,120.06-32.21,32.56-75.14,50.59-120.87,50.77h-.65ZM340.58,214.22c-69.8,0-126.68,56.82-126.79,126.67-.12,69.86,56.62,126.83,126.49,127h.31c69.66,0,126.58-56.65,126.87-126.29.14-34.1-12.94-66.1-36.85-90.11-23.92-24.02-55.88-37.26-90.01-37.26h-.02Z"/>
  <path class="cls-1" d="M528.21,185.66c-17.69,0-32.13-14.32-32.18-31.92-.05-17.82,13.85-31.91,31.64-32.08h.34c17.88,0,31.94,13.98,32.01,31.82.07,17.59-14.07,32.03-31.52,32.18h-.29Z"/>
</svg>